<?xml version="1.0" encoding="utf-8"?>
<!-- Generator: Adobe Illustrator 24.2.3, SVG Export Plug-In . SVG Version: 6.00 Build 0)  -->
<svg version="1.1" id="Layer_1" xmlns="http://www.w3.org/2000/svg" xmlns:xlink="http://www.w3.org/1999/xlink" x="0px" y="0px"
	 viewBox="0 0 1000 1000" style="enable-background:new 0 0 1000 1000;" xml:space="preserve">
<style type="text/css">
	.st0{fill:url(#SVGID_1_);}
	.st1{fill:url(#SVGID_2_);}
	.st2{fill:url(#SVGID_3_);}
	.st3{fill:url(#SVGID_4_);}
	.st4{fill:url(#SVGID_5_);}
	.st5{fill:url(#SVGID_6_);}
	.st6{fill-rule:evenodd;clip-rule:evenodd;fill:url(#SVGID_7_);}
	.st7{fill-rule:evenodd;clip-rule:evenodd;fill:url(#SVGID_8_);}
	.st8{fill-rule:evenodd;clip-rule:evenodd;fill:url(#SVGID_9_);}
	.st9{fill:url(#SVGID_10_);}
	.st10{fill:url(#SVGID_11_);}
</style>
<radialGradient id="SVGID_1_" cx="496" cy="500" r="536" gradientTransform="matrix(0.9328 0 0 0.9328 37.3134 33.5821)" gradientUnits="userSpaceOnUse">
	<stop  offset="0" style="stop-color:#4F5150"/>
	<stop  offset="1" style="stop-color:#363837"/>
</radialGradient>
<rect class="st0" width="1000" height="1000"/>
<linearGradient id="SVGID_2_" gradientUnits="userSpaceOnUse" x1="352.9912" y1="665.588" x2="544.6213" y2="665.588">
	<stop  offset="0" style="stop-color:#E1AE93"/>
	<stop  offset="0.2527" style="stop-color:#8B573F"/>
	<stop  offset="0.5165" style="stop-color:#FAC2B3"/>
	<stop  offset="1" style="stop-color:#E1AE93"/>
</linearGradient>
<path class="st1" d="M366.86,642.56h-13.87c33.55,28.72,77.12,46.06,124.75,46.06c23.52,0,46.05-4.24,66.88-11.98
	c-18.31,6-37.86,9.26-58.18,9.26C440.94,685.9,399.25,669.61,366.86,642.56z"/>
<linearGradient id="SVGID_3_" gradientUnits="userSpaceOnUse" x1="394.1975" y1="307.1444" x2="610.1975" y2="410.2032">
	<stop  offset="0" style="stop-color:#E1AE93"/>
	<stop  offset="0.2527" style="stop-color:#8B573F"/>
	<stop  offset="0.5165" style="stop-color:#FAC2B3"/>
	<stop  offset="0.7802" style="stop-color:#522C19"/>
	<stop  offset="1" style="stop-color:#E1AE93"/>
</linearGradient>
<path class="st2" d="M477.74,304.62c-44.72,0-85.87,15.29-118.51,40.93c2.37,3.65,4.59,7.4,6.63,11.24
	c32.53-27.56,74.61-44.19,120.58-44.19c59.4,0,112.31,27.75,146.5,70.99C598.03,335.73,541.52,304.62,477.74,304.62z"/>
<g>
	<g>
		<linearGradient id="SVGID_4_" gradientUnits="userSpaceOnUse" x1="283.8799" y1="612.2578" x2="799.125" y2="612.2578">
			<stop  offset="0" style="stop-color:#E1AE93"/>
			<stop  offset="0.2527" style="stop-color:#8B573F"/>
			<stop  offset="0.5165" style="stop-color:#FAC2B3"/>
			<stop  offset="1" style="stop-color:#E1AE93"/>
		</linearGradient>
		<path class="st3" d="M351.39,629.59h-11.52v-18.73h12.75c1.92,0.11,2.81,1.47,2.81,3.12l0,0.93l0.8,0.01v-10.34l-0.8,0.01l0,0.94
			c0,1.7-0.94,3.08-2.98,3.13h-12.58v-18.73h15.27c2.24,0.04,3.69,1.72,3.69,3.78l0,1.13l0.8,0.01v-8.33
			c-1.28,0.5-5.26,1.13-8.23,1.15H329.9l0.01,0.74l1.01,0c2.39,0,4.19,1.66,4.25,3.86v34.94c-0.09,2.17-1.88,3.91-4.25,3.91l-1.01,0
			l-0.01,0.74h29.91l4.06-10.56h-0.8C360.98,626.05,358.46,629.5,351.39,629.59z M408.99,626.82l-18.18-40.18h-0.7
			c-0.15,1.93-2.85,7.58-2.83,7.58l-15.24,32.63c-1.51,3-3.81,4.25-5.77,4.25h-0.58v0.74h14.03v-0.73h-0.58
			c-1.72,0-3.65-1.67-2.53-4.62l4.05-9.59h18.62l4.02,9.8c0.96,2.82-0.92,4.42-2.6,4.42h-0.59v0.73h15.12v-0.74l-0.56,0
			C412.71,631.11,410.49,629.84,408.99,626.82z M381.58,614.69l8.51-20.15l8.27,20.15H381.58z M742.54,587.67v0.74h0.84
			c2.01,0,3.27,1.76,2.51,3.59l-11.42,19l-10.7-19.08c-0.61-1.7,0.53-3.51,2.51-3.51h0.84v-0.74h-17.07v0.74h0.91
			c2.81,0,5.23,1.45,6.74,3.7l0.05,0l13.58,21.37v13.63h0c-0.04,2.21-1.94,3.99-4.28,3.99l-0.84,0l-0.01,0.74h15.06l-0.01-0.74
			l-0.85,0c-2.34,0-4.24-1.78-4.28-3.99v-13.53l14.12-21.44l0.05,0c1.4-1.96,3.9-3.74,6.71-3.74h0.94v-0.74H742.54z M310.17,607.81
			c4.03-0.97,8.09-4.58,8.09-9.12c0-9.79-10.03-11.02-15.32-11.02h-9.53v0h-5.49l0.01,0.74l0.87,0c2.47,0,4.33,1.57,4.41,3.95v34.78
			c-0.07,2.18-1.93,3.97-4.41,3.97l-0.87,0l-0.01,0.74h18.22c7.25,0,16.39-2.76,16.39-12.36
			C322.54,613.56,317.31,608.68,310.17,607.81z M306.11,629.63h-8.26v-39.76l5.01,0c6.45,0,10.24,2.64,10.24,8.81
			c0,8.09-7.57,9.08-12.93,9.08l0.02,0.74c7.93,0,17.09,1.57,17.09,10.97C317.27,626.5,312.45,629.63,306.11,629.63z M532.34,586.64
			c-13.74,0-24.84,9.44-24.84,23.12c0,13.68,11.11,23.12,24.84,23.12c13.73,0,24.84-9.43,24.84-23.12
			C557.18,596.08,546.07,586.64,532.34,586.64z M532.34,630.67c-10.83,0-19.39-8.47-19.39-20.91c0-12.45,8.56-20.92,19.39-20.92
			s19.39,8.47,19.39,20.92C551.73,622.21,543.17,630.67,532.34,630.67z M585.25,629.59h-11.52v-37.21c0.05-2.21,2-3.98,4.4-3.98
			l0.87,0l0.01-0.74h-15.25l0.01,0.74l0.87,0c2.41,0,4.35,1.78,4.4,3.99h0v34.8c-0.09,2.17-1.88,3.91-4.25,3.91l-1.01,0l-0.01,0.74
			h29.91l4.06-10.56h-0.8C594.83,626.05,592.31,629.5,585.25,629.59z M627.32,586.64c-13.74,0-24.84,9.44-24.84,23.12
			c0,13.68,11.11,23.12,24.84,23.12c13.73,0,24.84-9.43,24.84-23.12C652.16,596.08,641.05,586.64,627.32,586.64z M627.32,630.67
			c-10.83,0-19.39-8.47-19.39-20.91c0-12.45,8.56-20.92,19.39-20.92s19.39,8.47,19.39,20.92
			C646.71,622.21,638.15,630.67,627.32,630.67z M695.44,611.61l1.05,0c2.15,0,3.45,1.04,3.43,2.89l-0.12,9.78
			c-4.61,4.49-10.05,6.38-16.18,6.38c-11.3,0-18.83-8-18.83-20.91c0-12.97,7.49-20.91,18.74-20.91c10.3,0,16.09,4.05,18.23,12.65
			l0.64,0l-1.62-10.4c-4.96-3.03-10.4-4.46-17.19-4.46v0c-14.51,0-24.13,8.79-24.13,23.12c0,14.27,9.6,23.04,24.15,23.12
			c10.37,0,17.54-5.15,20.97-9.48l0-8.86c-0.01-1.88,1.2-2.92,3.36-2.92l1,0v-0.74h-13.5V611.61z M496.74,587.59l0.03,0h-24l0.03,0
			c-2.92,0-6.95-0.65-8.22-1.16v8.29l0.79-0.01l0-1.13c0-2.07,1.45-3.75,3.68-3.78h13.33v37.31c-0.04,2.21-1.96,3.99-4.32,3.99
			l-0.85,0l-0.01,0.74h15.17l-0.01-0.74l-0.85,0c-2.33,0-4.22-1.73-4.32-3.9V589.8h13.32c2.23,0.04,3.68,1.72,3.68,3.78l0,1.13
			l0.78,0.01v-8.29C503.68,586.95,499.66,587.59,496.74,587.59L496.74,587.59z M456.1,587.67h-3.08v0h-4.79v0.74h1.09
			c1.92,0,3.48,1.34,3.54,3.14l-0.02,24.74c0,9.05-5.71,14.59-14.99,14.59c-8.46,0-13.64-5.86-13.64-15.41l0-23.87h0
			c0.04-1.83,1.61-3.19,3.54-3.19h1.09v-0.74h-13.97v0.74h1.09c1.94,0,3.5,1.36,3.54,3.19l0,24.8c0,10.21,7.04,16.48,18.41,16.48
			c11.36,0,18.35-6.3,18.35-16.59l0-24.78c0.08-1.78,1.63-3.1,3.54-3.1h1.09v-0.74L456.1,587.67L456.1,587.67z"/>
	</g>
</g>
<g>
	<g>
		<linearGradient id="SVGID_5_" gradientUnits="userSpaceOnUse" x1="450.7573" y1="463.0173" x2="562.2867" y2="559.0173">
			<stop  offset="0" style="stop-color:#E1AE93"/>
			<stop  offset="0.2527" style="stop-color:#8B573F"/>
			<stop  offset="0.5165" style="stop-color:#FAC2B3"/>
			<stop  offset="0.852" style="stop-color:#522C19"/>
			<stop  offset="1" style="stop-color:#E1AE93"/>
		</linearGradient>
		<path class="st4" d="M511.53,376.14c-2-0.07-5.85,0.78-11.55,2.56c-5.71,1.78-11.95,7.36-18.72,16.73
			c-6.77,9.38-14.71,23.26-23.82,41.66c-9.11,18.4-15.58,32.56-19.43,42.47c-4.68-0.18-17.26-1.38-37.73-3.63
			c-17.83-1.95-32.81-3.24-44.97-3.87c-2.41,2.66-4.39,5.7-6.12,8.92c50.08,4.09,78.82,6.27,86.18,6.54
			c-0.19,0.52-1.53,3.76-4.01,9.74c-2.48,5.98-4.35,10.73-5.61,14.23c-1.26,3.51-3.02,8.65-5.27,15.42
			c-2.25,6.77-3.72,12.44-4.41,17.01c-0.69,4.57-1.14,8.29-1.33,11.14c-0.2,2.86-0.34,5.58-0.44,8.18c-0.1,2.6,0.57,5.49,2.01,8.66
			c2.87,6.7,8.29,10.2,16.26,10.5c7.1,0.27,14.33-2.85,21.69-9.34c5.57-5.17,10.6-10.88,15.09-17.13
			c4.49-6.25,10.19-16.1,17.12-29.55c1.5-3.07,1.62-4.89,0.33-5.45c-1.28-0.57-2.67,0.6-4.16,3.49
			c-12.69,23.64-24.1,38.92-34.26,45.82c-3.03,1.97-5.75,2.91-8.17,2.81c-2.43-0.09-4.68-1.39-6.75-3.89
			c-2.08-2.51-3-6.79-2.77-12.86c0.41-10.74,5.44-29.38,15.12-55.91c2.9-7.87,4.44-11.98,4.63-12.32
			c11.11-0.27,19.61-2.29,25.48-6.07c2.31-1.47,3.17-2.57,2.6-3.28c-0.58-0.72-2.32-0.61-5.22,0.32c-2.9,0.93-9.63,1.2-20.2,0.8
			c6.93-18.13,14.86-35.27,23.8-51.42c8.94-16.15,16.28-28.11,22.04-35.87c5.76-7.76,9.78-12.17,12.08-13.21
			c2.29-1.04,3.45-1.82,3.47-2.34C514.51,376.51,513.51,376.21,511.53,376.14z"/>
	</g>
</g>
<g>
	<g>
		<linearGradient id="SVGID_6_" gradientUnits="userSpaceOnUse" x1="471.7529" y1="501.8276" x2="930.707" y2="501.8276">
			<stop  offset="0" style="stop-color:#E1AE93"/>
			<stop  offset="0.2527" style="stop-color:#8B573F"/>
			<stop  offset="0.5165" style="stop-color:#FAC2B3"/>
			<stop  offset="0.7802" style="stop-color:#522C19"/>
			<stop  offset="1" style="stop-color:#E1AE93"/>
		</linearGradient>
		<path class="st5" d="M737.92,469.65c0.63,0,1.18-0.08,1.65-0.24c6.13-2.04,11.59-5.38,16.38-10.02
			c4.79-4.63,7.19-10.41,7.19-17.33c0-3.46-0.83-6.48-2.48-9.08s-3.93-3.89-6.84-3.89c-2.91,0-5.46,0.94-7.66,2.83
			c-2.2,1.89-3.46,3.65-3.77,5.3c-0.32,1.65-0.47,3.11-0.47,4.36c0,1.26,0.71,2.75,2.12,4.48c1.41,1.73,3.34,2.59,5.78,2.59
			c2.43,0,4.83-0.78,7.19-2.36c-0.63,5.03-2.63,9.28-6.01,12.73c-3.38,3.46-7.43,6.05-12.14,7.78c-1.26,0.47-1.89,1.18-1.89,2.12
			C736.97,469.41,737.29,469.65,737.92,469.65z M813.12,513.73c-0.79,0-1.34,0.39-1.65,1.18c-8.49,16.5-14.38,26.8-17.68,30.88
			c-6.13,7.39-12.34,11.08-18.63,11.08c-0.79,0-2.2-0.16-4.24-0.47c4.56-3.14,8.49-7.23,11.79-12.26c3.3-5.03,4.95-10.14,4.95-15.32
			s-1.81-11.87-5.42-20.04c-1.57-3.3-2.99-6.37-4.24-9.19c-1.26-2.83-1.89-6.44-1.89-10.84c0-8.33,2.67-13.75,8.02-16.27
			c0.94-0.47,2.04-0.71,3.3-0.71c1.26,0,2.75,0.39,4.48,1.18c1.73,0.79,2.87,0.55,3.42-0.71c0.55-1.26-0.24-2.39-2.36-3.42
			c-2.12-1.02-4.29-1.53-6.48-1.53c-8.33,0-15.64,6.68-21.93,20.04c-5.66,12.26-12.5,26.01-20.51,41.26
			c-2.2,0.16-4.28,1.57-6.25,4.24c-1.96,2.67-2.95,5.46-2.95,8.37c0,2.91,0.24,5.38,0.71,7.43c2.36,8.8,9.11,13.2,20.28,13.2
			c2.83,0,6.05-0.79,9.67-2.36c5.5,1.57,11.16,1.42,16.97-0.47c3.61-1.1,6.76-2.98,9.43-5.66l4.95-5.19
			c1.57-1.41,3.14-3.38,4.71-5.89c1.57-2.51,2.87-4.63,3.89-6.37c1.02-1.73,2.24-4.01,3.65-6.84c1.41-2.83,2.43-4.99,3.06-6.48
			c0.63-1.49,1.3-2.98,2-4.48c0.71-1.49,1.06-2.39,1.06-2.71C815.25,514.13,814.54,513.58,813.12,513.73z M754.18,557.82
			c-4.56,0-7.47-2.12-8.72-6.37c-0.16-1.1-0.24-2.12-0.24-3.06c0-3.3,1.42-6.37,4.24-9.2c0.47,8.17,3.61,14.07,9.43,17.68
			C757.64,557.51,756.07,557.82,754.18,557.82z M762.91,554.75c-6.6-3.14-9.9-9.35-9.9-18.63c0-4.71-1.65-7.07-4.95-7.07
			c2.83-5.19,10.21-19.72,22.16-43.62c-0.16,1.1-0.24,3.15-0.24,6.13c0,2.99,0.55,8.72,1.65,17.21c1.1,8.49,1.65,15.17,1.65,20.04
			C773.28,540.77,769.82,549.41,762.91,554.75z M678.98,521.87c1.26-3.69,1.96-5.85,2.12-6.48c18.7-17.13,34.81-40.71,48.33-70.73
			c3.77-8.17,5.66-14.93,5.66-20.28c0-1.41-0.08-2.59-0.24-3.54c-1.26-5.19-3.69-7.78-7.31-7.78c-5.19,0-10.45,2.83-15.8,8.49
			c-2.67,2.83-6.33,8.13-10.96,15.91c-4.64,7.78-10.3,19.37-16.97,34.77c-6.68,15.41-11.83,29.63-15.44,42.67
			c-0.03,0.11-0.08,0.3-0.15,0.52c-0.03,0.06-0.06,0.12-0.09,0.18c-6.29,12.89-12.65,23.34-19.1,31.36c-4.4,5.5-8.1,8.25-11.08,8.25
			c-2.36,0-3.54-1.53-3.54-4.6c0-3.06,0.51-7.07,1.53-12.02c1.02-4.95,4.13-12.41,9.31-22.4c5.19-9.98,9.19-16.39,12.02-19.21
			c-1.26,0.32-3.18,0.24-5.78-0.24c-2.59-0.47-4.21-0.71-4.83-0.71c-3.15,0-5.74,1.06-7.78,3.18c-2.04,2.12-4.56,6.09-7.54,11.91
			c-15.25,28.92-27.58,43.38-37.01,43.38c-3.93,0-5.89-3.07-5.89-9.2s3.06-14.3,9.19-24.52c4.87-8.49,10.14-15.87,15.8-22.16
			c9.9-10.69,18.23-16.03,24.99-16.03c5.81,0,9.58,2.83,11.32,8.49c2.04,0.32,3.38-0.31,4.01-1.89c0.63-1.57,0.15-3.22-1.42-4.95
			c-5.03-5.03-11.16-7.54-18.39-7.54c-2.67,0-5.5,0.39-8.49,1.18c-11,2.67-20.28,8.41-27.82,17.21
			c-12.13,14.41-18.73,28.62-19.85,42.64c-4.36,6.33-8.51,10.99-12.45,13.94c-3.3,1.89-6.29,2.83-8.96,2.83
			c-2.36,0-4.09-1.02-5.19-3.07c-1.1-2.04-1.65-4.04-1.65-6.01c0-1.96,0.24-3.97,0.71-6.01l5.42-24.05
			c12.26-11.32,22.71-24.28,31.36-38.9h13.67c0.78,0,1.37-0.43,1.77-1.3c0.39-0.86,0.47-1.73,0.24-2.59
			c-0.24-0.86-0.75-1.3-1.53-1.3h-11.32c3.46-6.6,6.99-13.75,10.61-21.45c3.61-7.7,5.42-14.26,5.42-19.69c0-5.42-1.81-9-5.42-10.73
			c-0.79-0.31-2.08-0.47-3.89-0.47c-1.81,0-4.76,1.46-8.84,4.36c-4.09,2.91-8.57,8.53-13.44,16.86
			c-4.87,8.33-10.14,18.71-15.8,31.12h-14.15c-0.79,0-1.38,0.43-1.77,1.3c-0.39,0.87-0.47,1.73-0.24,2.59
			c0.24,0.87,0.74,1.3,1.53,1.3h12.26c-7.19,17.53-12.32,32.16-15.39,43.93c-11.19,24.3-23.58,36.47-37.18,36.47
			c-3.62,0-6.41-1.3-8.37-3.89c-1.97-2.59-2.95-6.09-2.95-10.49c0-6.6,1.1-12.57,3.3-17.92c3.3,0,8.09-1.06,14.38-3.18
			c6.28-2.12,11.16-4.52,14.62-7.19c11.32-8.64,16.97-17.68,16.97-27.11c0-2.67-1.34-5.11-4.01-7.31c-2.83-1.89-5.89-2.83-9.2-2.83
			c-3.3,0-6.76,0.79-10.37,2.36c-7.54,3.15-14.23,8.13-20.04,14.97c-5.82,6.84-10.41,14.23-13.79,22.16
			c-3.38,7.94-5.07,15.44-5.07,22.51c0,7.07,2.2,12.65,6.6,16.74c4.4,4.09,9.74,6.13,16.03,6.13c11.79,0,21.69-5.5,29.71-16.5
			c2.13-2.77,4.24-6.07,6.34-9.85c-0.29,2.38-0.45,4.57-0.45,6.55c0,5.5,1.57,10.06,4.72,13.67c3.14,3.62,7.15,5.42,12.02,5.42
			c8.34,0,16.26-5.18,23.77-15.52c0.62,6.14,2.9,10.62,6.88,13.4c2.04,1.57,4.32,2.36,6.84,2.36c9.11,0,19.96-10.14,32.54-30.41
			c-1.57,5.66-2.36,10.45-2.36,14.38c0,3.93,0.71,7.07,2.12,9.43c2.83,4.4,6.52,6.6,11.08,6.6c8.08,0,17.68-9.74,28.79-29.2
			c-0.3,1.78-0.56,3.57-0.73,5.39c-0.16,2.99-0.24,5.42-0.24,7.31c0,1.89,0.27,4.05,0.83,6.48c0.55,2.44,2.16,4.71,4.83,6.84
			c2.67,2.12,6.44,3.18,11.32,3.18c4.87,0,10.06-1.73,15.56-5.19c2.04-1.26,4.2-3.18,6.48-5.78c2.28-2.59,4.08-4.72,5.42-6.37
			c1.33-1.65,2.91-4.16,4.71-7.54c1.8-3.38,3.06-5.74,3.77-7.07c0.71-1.33,1.8-3.69,3.3-7.07c1.49-3.38,2.47-5.58,2.95-6.6
			c0.47-1.02,0.31-1.85-0.47-2.48c-1.1-0.47-2.28,0.39-3.54,2.59c-5.97,11.79-11.63,21.5-16.97,29.12
			c-5.34,7.63-10.84,11.43-16.5,11.43c-3.46,0-5.98-1.45-7.54-4.36c-1.57-2.91-2.36-6.05-2.36-9.43c0-3.38,0.43-6.76,1.3-10.14
			C676.66,529.1,677.72,525.56,678.98,521.87z M701.26,465.52c7.46-16.11,13.4-27.27,17.8-33.48c4.4-6.21,7.39-9.31,8.96-9.31
			c1.1,0,1.65,1.57,1.65,4.72c0,3.15-1.85,9.08-5.54,17.8c-3.7,8.72-9.47,19.3-17.33,31.71c-7.86,12.42-15.8,22.71-23.81,30.88
			C687.7,495.74,693.79,481.63,701.26,465.52z M590.69,435.46c3.54-5.03,6.17-7.54,7.9-7.54c1.1,0,1.65,1.57,1.65,4.71
			c0,7.23-5.19,20.12-15.56,38.67h-11.79C581.22,452.44,587.15,440.49,590.69,435.46z M570.53,476.48h11.08
			c-7.39,12.1-15.32,22.56-23.81,31.36C564.4,491.34,568.65,480.88,570.53,476.48z M511.36,498.41
			c8.96-10.84,15.64-16.27,20.04-16.27c2.51,0,3.77,1.57,3.77,4.72c0,8.17-4.33,15.95-12.97,23.34c-3.77,3.15-8.21,5.66-13.32,7.54
			c-5.11,1.89-9,2.83-11.67,2.83C501.3,512.4,506.02,505.01,511.36,498.41z"/>
	</g>
</g>
<g>
	<g>
		<g>
			<g>
				<linearGradient id="SVGID_7_" gradientUnits="userSpaceOnUse" x1="212.9801" y1="303.9607" x2="426.1566" y2="673.8431">
					<stop  offset="0" style="stop-color:#E1AE93"/>
					<stop  offset="0.2527" style="stop-color:#8B573F"/>
					<stop  offset="0.5165" style="stop-color:#FAC2B3"/>
					<stop  offset="0.7802" style="stop-color:#522C19"/>
					<stop  offset="1" style="stop-color:#E1AE93"/>
				</linearGradient>
				<path class="st6" d="M299.08,329.55c-23.04,27-40.57,69.06-38.4,119.16c-18.01-50.25,8.22-112.58,37.16-138.4
					c38.89,33.65,75.36,78.78,65.85,150.02c-8.29,62.1-48.35,98.67-91.02,115.99c37.51-25.56,77.28-69.34,78.69-133.36
					C352.51,390.63,327.92,357.98,299.08,329.55z"/>
				<linearGradient id="SVGID_8_" gradientUnits="userSpaceOnUse" x1="143.2382" y1="344.1555" x2="356.4147" y2="714.0378">
					<stop  offset="0" style="stop-color:#E1AE93"/>
					<stop  offset="0.2527" style="stop-color:#8B573F"/>
					<stop  offset="0.5165" style="stop-color:#FAC2B3"/>
					<stop  offset="0.7802" style="stop-color:#522C19"/>
					<stop  offset="1" style="stop-color:#E1AE93"/>
				</linearGradient>
				<path class="st7" d="M315.85,489.45c-54.88-31.16-129.41-9.08-158.79,25.98c27.69,13.46,68.85,27.81,107.74,21.11
					c-36.63,22.22-100.42,0.02-131.71-17.5c27.65-29.33,67.03-59.22,121.24-58.97c31.75,0.15,58.99,10.1,80.21,23.54
					c-16,74.96-88.88,112.53-164.59,75.13C216.93,575.55,288.11,575.74,315.85,489.45z"/>
			</g>
		</g>
		<linearGradient id="SVGID_9_" gradientUnits="userSpaceOnUse" x1="182.8035" y1="321.3526" x2="395.98" y2="691.2349">
			<stop  offset="0" style="stop-color:#E1AE93"/>
			<stop  offset="0.2527" style="stop-color:#8B573F"/>
			<stop  offset="0.5165" style="stop-color:#FAC2B3"/>
			<stop  offset="0.7802" style="stop-color:#522C19"/>
			<stop  offset="1" style="stop-color:#E1AE93"/>
		</linearGradient>
		<path class="st8" d="M146.93,448.9c9.77,9.22,18.62,18.2,25.66,27.12c2.92-1.72,5.9-3.36,8.92-4.91
			c-4.68-6.33-10.98-13.02-19.37-19.97c-17.52-15.33-26.27-27.8-9.37-34.02c16.9-6.21,3.92-12.67,12.9-16.36
			c8.98-3.68,9.51-3.58,9.2-10.23c-0.31-6.66,15.74-4.53,12.48-19.74c-3.25-15.21,2.12-7.81,10.99-8.22
			c8.87-0.41,18.37,2.86,43-25.41c24.63-28.28,37.84-29.74,44.92-32.17c0,0-28.86-2.14-51.85,26.57
			c-22.98,28.71-34.8,21.02-44.58,18.68c-9.78-2.33-15.14,3.36-10.09,21.96c1.13,5.35-6.63,9.29-10.43,9.07
			c-3.8-0.21-5.99,5.2-4.52,11.55c1.47,6.34-8.66-3.39-10.42,8.15c-0.72,7.18-4.59,9.15-10.02,10.62
			C138.94,413.06,119.08,422.61,146.93,448.9z"/>
	</g>
</g>
<g>
	<g>
		<linearGradient id="SVGID_10_" gradientUnits="userSpaceOnUse" x1="223.0484" y1="504.8276" x2="728.1716" y2="504.8276">
			<stop  offset="0" style="stop-color:#E1AE93"/>
			<stop  offset="0.2527" style="stop-color:#8B573F"/>
			<stop  offset="0.5165" style="stop-color:#FAC2B3"/>
			<stop  offset="1" style="stop-color:#E1AE93"/>
		</linearGradient>
		<path class="st9" d="M413.32,711.3L413.32,711.3l-10.92-3.41l0,0c-1.11-0.34-2.54-1.08-2.97-1.42l-1.46,4.7l0.3,0.09l0.09-0.28
			c0.53-1.69,1.84-2.45,3.58-1.94l3.42,1.07l-4.6,14.73c-0.3,0.88-1.23,1.34-2.12,1.06l-0.31-0.1l-0.09,0.3l8.18,2.55l0.09-0.3
			l-0.31-0.1c-0.88-0.28-1.4-1.17-1.15-2.05l4.61-14.76l3.42,1.07c1.72,0.57,2.38,1.94,1.84,3.63l-0.09,0.27l0.3,0.1l1.46-4.69
			C416.13,711.88,414.43,711.64,413.32,711.3z M434.36,716.51l0.33,0.07c0.76,0.15,1.17,1.03,0.68,1.7l-5.51,6.14l-2.63-7.79
			c-0.18-0.78,0.51-1.46,1.28-1.3l0.33,0.07l0.06-0.3l-9.23-1.87l-0.06,0.3l0.37,0.07c1.12,0.23,1.99,1.08,2.37,2.03l0.01,0
			l3.67,9.4l-1.25,6.2c-0.19,0.92-1.1,1.46-2.02,1.27l-0.35-0.07l-0.06,0.3l8.49,1.72l0.06-0.3l-0.34-0.07
			c-0.94-0.19-1.55-1.04-1.39-1.96l1.25-6.18l7.07-7.24l0.01,0c0.72-0.69,1.86-1.18,2.98-0.96l0.38,0.08l0.06-0.3l-6.5-1.32
			L434.36,716.51z M338.81,695.44l-3.07-2.13l4.19-6.04l2.93,2.03c1.15,0.85,1.3,2.21,0.52,3.34l-0.13,0.18l0.26,0.18l3.73-5.39
			l-0.26-0.18l-0.11,0.16c-0.79,1.14-2.13,1.48-3.34,0.67l-2.9-2.01l4.28-6.18l3.67,2.54c1.46,1.04,1.66,2.55,0.65,4.01l-0.17,0.24
			l0.26,0.18l2.81-4.06c-0.51-0.12-1.96-0.79-2.92-1.44l-8.97-6.21l-0.17,0.26l0.31,0.21c0.75,0.52,0.98,1.52,0.46,2.29l-8.39,12.12
			c-0.54,0.75-1.55,0.9-2.3,0.38l-0.31-0.21l-0.18,0.25l11.99,8.3l4.23-4l-0.25-0.17C343.41,696.55,340.97,696.91,338.81,695.44z
			 M333.35,672.82c2.45-2.9,0.86-6.23-2.57-9.14l-6.85-5.8l-0.2,0.24c0.05,0.04,0.25,0.22,0.3,0.26c0.82,0.69,0.94,1.91,0.27,2.75
			l-11.15,13.14c-0.72,0.8-1.94,0.88-2.76,0.19c-0.05-0.04-0.25-0.21-0.3-0.25l-0.2,0.23l7.48,6.35c4,3.39,8,4.08,10.57,1.03
			c2.14-2.51,1.74-5.7-0.47-7.95C329.12,674.93,331.51,674.99,333.35,672.82z M323.67,670.69l-0.18,0.23c2.11,1.78,3,4.39,0.64,7.15
			c-2.27,2.69-4.76,2.56-6.85,0.77v0l-1.1-0.93l12.26-14.46l0.67,0.57c1.82,1.54,2.22,3.52,0.21,5.89
			C327.29,672.29,325.15,671.95,323.67,670.69z M389.96,703.26l-0.11,0.25l0.39,0.17c0.71,0.31,1.05,1.07,0.77,1.79l-4.13,9.58
			c-1.44,3.29-4.05,4.49-7.02,3.21c-2.88-1.24-3.69-4.06-2.18-7.55l3.99-9.26c0.31-0.71,1.1-0.99,1.81-0.68l0.41,0.18l0.11-0.25
			l-7.48-3.23l-0.11,0.25l0.39,0.17c0.71,0.31,1.07,1.08,0.77,1.79l-4.07,9.44c-1.75,4.07-0.12,7.68,5.35,10.04
			c4.56,1.97,8.23,0.61,10-3.48l4.06-9.41c0.32-0.69,1.12-0.95,1.82-0.65l0.39,0.17l0.11-0.25l-3.51-1.51L389.96,703.26z
			 M364.26,709.75l1.24-19.25l-0.23-0.13c-0.51,0.72-2.67,2.26-3.09,2.58l-12.29,8.91c-1.08,0.73-2.17,0.64-2.87,0.25l-0.22-0.12
			l-0.15,0.27l5.42,3.02l0.15-0.27l-0.21-0.12c-0.62-0.34-1.02-1.25-0.12-1.99l2.48-1.91l5.73,3.2l-0.33,3.06
			c-0.14,1.2-1.14,1.34-1.76,0.99l-0.21-0.12l-0.15,0.27l7.96,4.44l0.15-0.27l-0.2-0.11C364.8,712.03,364.17,711.13,364.26,709.75z
			 M360.23,702.88l-4.82-2.69l5.58-4.29L360.23,702.88z M468.83,719.75L468.83,719.75l-11.43-0.43l0,0
			c-1.16-0.04-2.73-0.38-3.24-0.6l-0.18,4.92l0.32,0.01l0.01-0.29c0.07-1.77,1.13-2.85,2.94-2.8l3.58,0.13l-0.58,15.42
			c-0.06,0.93-0.84,1.62-1.77,1.58l-0.33-0.01l-0.01,0.31l8.56,0.32l0.01-0.31l-0.33-0.01c-0.93-0.04-1.66-0.76-1.65-1.68
			l0.58-15.45l3.58,0.13c1.81,0.09,2.8,1.25,2.73,3.02l-0.01,0.29l0.32,0.01l0.18-4.91C471.7,719.58,469.99,719.8,468.83,719.75z
			 M538.17,711.24L538.17,711.24l-11.07,2.87c-1.12,0.29-2.73,0.42-3.27,0.36l1.23,4.76l0.31-0.08l-0.07-0.28
			c-0.44-1.71,0.27-3.05,2.02-3.53l3.46-0.9l3.87,14.94c0.21,0.91-0.34,1.79-1.24,2.02l-0.32,0.08l0.08,0.3l8.29-2.15l-0.08-0.3
			l-0.32,0.08c-0.9,0.23-1.81-0.25-2.06-1.14l-3.87-14.96l3.46-0.9c1.76-0.43,3.04,0.4,3.48,2.11l0.07,0.28l0.31-0.08l-1.23-4.76
			C540.86,710.25,539.29,710.95,538.17,711.24z M622.29,666.22L622.29,666.22L622.29,666.22L622.29,666.22z M632.4,681.6
			c-0.72,0.58-1.75,0.52-2.35-0.19l-9.7-12.05l2.79-2.24c1.43-1.12,2.94-0.89,4.04,0.49l0.18,0.22l0.25-0.2l-3.08-3.83
			c-0.19,0.4-1.34,1.69-2.24,2.41h0l-8.91,7.17l0,0c-0.9,0.73-2.31,1.5-2.84,1.67l3.08,3.83l0.25-0.2l-0.18-0.22
			c-1.11-1.38-1.01-2.89,0.38-4.05l2.79-2.25l9.68,12.02c0.57,0.75,0.43,1.77-0.3,2.35l-0.26,0.21l0.19,0.24l6.67-5.37l-0.2-0.24
			L632.4,681.6z M498.97,737.33c-0.92,0.05-1.7-0.61-1.77-1.53l-0.77-14.69l0.02,0c-0.04-0.93,0.67-1.68,1.6-1.73l0.35-0.02
			l-0.01-0.31l-8.54,0.45l0.02,0.31l0.34-0.02c0.93-0.05,1.71,0.62,1.79,1.56l0.35,6.76l-8.15,0.43l-0.35-6.78
			c-0.01-0.93,0.69-1.67,1.62-1.72l0.34-0.02l-0.01-0.31l-8.54,0.45l0.02,0.31l0.35-0.02c0.91-0.05,1.71,0.62,1.77,1.56l0.77,14.67
			c0.04,0.93-0.69,1.68-1.6,1.73l-0.35,0.02l0.01,0.31l8.54-0.45l-0.02-0.31l-0.34,0.02c-0.93,0.05-1.71-0.62-1.79-1.55l-0.35-6.7
			l8.15-0.43l0.35,6.7c0.02,0.93-0.69,1.68-1.62,1.73l-0.34,0.02l0.01,0.31l8.52-0.45l-0.02-0.31L498.97,737.33z M647.28,661.32
			c-1.43-1.69-3.3-2.1-5.07-1.58l-5.62,1.23c-1.3,0.37-2.42,0.51-3.16-0.38c-0.92-1.07-0.67-2.71,0.77-4.09
			c1.78-1.71,3.63-1.79,4.94-0.43l0.19-0.18l-2.18-2.8l0,0l-0.33-0.43l-1.21,1.17c-1.04,0.78-2.35,1.87-3.1,2.59
			c-2.27,2.19-2.63,4.95-0.77,7.26c1.31,1.69,3.26,2.41,5.5,1.75l5.12-1.05c1.79-0.53,2.86-0.37,3.6,0.4
			c1.05,1.09,1.1,2.83-0.63,4.52c-2.38,2.31-5.44,2-7.25-0.14l-0.17,0.17c0.27,1.36,1.61,3.36,2.77,3.88
			c1.31,0.07,3.34-0.93,5.26-2.78C649.04,667.42,649.58,663.97,647.28,661.32z M609.86,686.74l-5.75,0.22
			c-1.35,0.13-2.47,0.08-3.04-0.93c-0.72-1.21-0.18-2.78,1.48-3.89c2.05-1.37,3.89-1.12,4.93,0.45l0.22-0.15l-1.65-3.14l0,0
			l-0.24-0.48l-1.4,0.94c-1.16,0.58-2.65,1.43-3.51,2c-2.62,1.75-3.46,4.41-2.04,7.01c0.99,1.9,2.78,2.95,5.1,2.69l5.22-0.13
			c1.85-0.21,2.88,0.14,3.47,1.03c0.84,1.26,0.58,2.97-1.42,4.33c-2.75,1.85-5.7,1.01-7.11-1.42l-0.2,0.13
			c0.03,1.39,0.99,3.59,2.04,4.31c1.28,0.31,3.45-0.32,5.67-1.8c3.59-2.4,4.73-5.69,2.94-8.71
			C613.46,687.28,611.69,686.54,609.86,686.74z M525.85,733.3c-0.84,0.14-1.89-0.18-2.68-1.32l-10.99-15.86l-0.26,0.04
			c0.05,0.88-0.69,3.44-0.82,3.94l-4.1,14.62c-0.4,1.24-1.3,1.85-2.09,1.98l-0.25,0.04l0.05,0.31l6.13-1l-0.05-0.3l-0.24,0.04
			c-0.7,0.11-1.58-0.34-1.33-1.49l0.76-3.04l6.48-1.06l1.64,2.6c0.64,1.03-0.06,1.76-0.77,1.87l-0.24,0.04l0.05,0.3l8.99-1.47
			l-0.05-0.31L525.85,733.3z M510.29,729.98l1.71-6.82l3.75,5.93L510.29,729.98z M601.22,703.9c-0.75,0.4-1.85,0.44-2.96-0.37
			l-15.57-11.39l-0.23,0.13c0.33,0.82,0.47,3.47,0.51,3.99l0.91,15.16c0.03,1.3-0.63,2.17-1.33,2.55l-0.22,0.12l0.15,0.27l5.46-2.95
			l-0.15-0.27l-0.21,0.12c-0.62,0.33-1.6,0.19-1.75-0.97l-0.28-3.12l5.78-3.12l2.4,1.92c0.94,0.76,0.52,1.68-0.11,2.02l-0.21,0.12
			l0.15,0.27l8.02-4.33l-0.15-0.27L601.22,703.9z M585.43,705.85l-0.62-7l5.48,4.38L585.43,705.85z M538.16,711.24L538.16,711.24
			L538.16,711.24L538.16,711.24z M575.51,711.22c0.31,2.84-0.69,5.09-3.09,6.12l-3.44,1.44l-5.95-14.2
			c-0.34-0.87,0.08-1.82,0.95-2.18l0.32-0.13l-0.12-0.29l-7.93,3.32l0.12,0.29l0.32-0.14c0.85-0.36,1.84,0,2.2,0.86l5.68,13.57
			c0.34,0.86-0.08,1.79-0.92,2.14l-0.34,0.14l0.12,0.29l13.45-5.63l-1.08-5.73L575.51,711.22z"/>
	</g>
</g>
<g>
	<g>
		<linearGradient id="SVGID_11_" gradientUnits="userSpaceOnUse" x1="565.0448" y1="569.5021" x2="685.7507" y2="801.3844">
			<stop  offset="0" style="stop-color:#E1AE93"/>
			<stop  offset="0.2527" style="stop-color:#8B573F"/>
			<stop  offset="0.5165" style="stop-color:#FAC2B3"/>
			<stop  offset="0.7797" style="stop-color:#522C19"/>
			<stop  offset="1" style="stop-color:#E1AE93"/>
		</linearGradient>
		<path class="st10" d="M488,223.24c-33.49,0-65.57,6.03-95.22,17.05c26.07-8.54,53.91-13.18,82.83-13.18
			c114.91,0,212.78,72.93,249.86,175.03h19.14C706.15,297.72,605.78,223.24,488,223.24z M475.61,758.64
			c-84.57,0-159.91-39.51-208.59-101.07C316.74,725.71,397.19,770,488,770c94.82,0,178.35-48.28,227.39-121.59h-24.28
			C642.84,715.19,564.31,758.64,475.61,758.64z"/>
	</g>
</g>
</svg>
